Coordinates
version=1
nRows=8
nColumns=36
inDegrees=yes

Units are S.I. units (second, meters, Newtons, ...)
If the header above contains a line with 'inDegrees', this indicates whether rotational values are in degrees (yes) or radians (no).

endheader
time	pelvis_tilt	pelvis_list	pelvis_rotation	pelvis_tx	pelvis_ty	pelvis_tz	hip_flexion_r	hip_adduction_r	hip_rotation_r	knee_angle_r	knee_angle_r_beta	ankle_angle_r	subtalar_angle_r	mtp_angle_r	hip_flexion_l	hip_adduction_l	hip_rotation_l	knee_angle_l	knee_angle_l_beta	ankle_angle_l	subtalar_angle_l	mtp_angle_l	lumbar_extension	lumbar_bending	lumbar_rotation	arm_flex_r	arm_add_r	arm_rot_r	elbow_flex_r	pro_sup_r	arm_flex_l	arm_add_l	arm_rot_l	elbow_flex_l	pro_sup_l
      0.00000000	     -6.52895929	     -1.72016142	      2.00129905	      0.16568704	      1.28916856	     -0.61361559	     11.64810754	     -1.52481298	     -3.07323688	      7.98618808	      0.13938528	     -1.18646463	    -11.96023533	     -6.75785659	      6.53730150	     -1.76750935	      2.81878987	      3.66754254	      0.06401069	      5.76691719	     -5.57704969	     -6.75785659	     -0.53689284	     -1.66632827	      0.00261298	     -6.60603309	     -9.02960140	     -3.54167271	     27.74008097	     90.38031086	      2.83322343	    -11.56473640	      8.87610771	     22.06856600	     88.06761134
      0.01666670	     -6.68654562	     -1.57635488	      0.97156509	      0.16629699	      1.28423965	     -0.61328525	     11.54309952	     -1.47491073	     -3.42414412	      7.22329807	      0.12607033	      0.40306482	     -9.84711802	     -7.00406966	      6.94927459	     -1.59267387	      1.95733413	      4.24332529	      0.07406000	      5.13344843	     -8.07867034	     -7.00406966	     -0.36262233	     -2.39221435	      1.76921724	     -7.81254355	     -8.86805294	     -5.35176994	     28.24198322	     95.62631660	      2.80707651	    -10.64412980	      4.92561199	     21.96211215	     93.61621187
      0.03333330	     -6.82805115	     -1.50343549	      1.28656715	      0.17202136	      1.28583950	     -0.60846088	     10.43587073	     -1.30425582	     -3.33104087	      5.31033912	      0.09268290	     -0.03555801	    -10.60070717	     -7.02173456	      6.80459823	     -1.59456178	      3.01107329	      3.53968283	      0.06177912	      5.35019913	     -8.06032421	     -7.02173456	     -0.09268579	     -2.87995321	      1.89974533	     -8.77941149	     -8.61479286	     -5.08808489	     28.52355587	     95.93263987	      3.00343800	    -10.57282841	      4.73750260	     21.67472777	     93.81225981
      0.05000000	     -6.87487923	     -1.39411271	      1.61546466	      0.17992779	      1.28310986	     -0.61155867	      9.93988755	     -1.54644960	     -4.00614697	      5.00152759	      0.08729312	      0.81366759	     -9.82238237	     -7.04560261	      6.60718466	     -1.42139799	      3.25085514	      3.49678267	      0.06103037	      6.11275394	     -7.54981678	     -7.04560261	      0.44188494	     -3.12336294	      2.08313431	     -9.77350188	     -8.54801489	     -5.41838237	     28.99743099	     96.27467432	      2.87737929	    -10.37357436	      4.45011639	     21.39575808	     94.11247957
      0.06666670	     -7.31034336	     -1.18726243	      1.66893078	      0.17975797	      1.28314601	     -0.61165326	     10.25779868	     -1.79515972	     -4.06792561	      5.32548476	      0.09294724	      1.46197973	     -9.65135580	     -7.13232003	      6.94967596	     -1.15011417	      3.47730755	      3.74936888	      0.06543883	      6.69170648	     -7.16549933	     -7.13232003	      1.32262933	     -3.48722853	      2.30254799	    -10.30765024	     -8.33971924	     -5.55047188	     28.65131520	     94.36180593	      2.54470657	    -10.24697353	      4.29357639	     21.12054216	     92.10737360
      0.08333330	     -7.89774105	     -0.95960645	      1.60330110	      0.18048456	      1.28354763	     -0.61091630	     11.11955826	     -2.12716211	     -4.34610377	      6.08466731	      0.10619748	      1.78304589	     -9.71549245	     -7.15488981	      7.52680721	     -0.86847267	      3.66779745	      4.11404524	      0.07180363	      7.09735290	     -6.72249833	     -7.15488981	      2.00846433	     -3.74213785	      2.28766837	    -10.76968256	     -8.20835458	     -5.66183173	     29.27221677	     93.57580852	      1.88766565	    -10.35805999	      4.21900338	     21.68201707	     91.31946077
      0.10000000	     -8.40940737	     -0.68922025	      1.55547013	      0.18101535	      1.28313144	     -0.61069168	     11.80554886	     -2.52358994	     -4.30428104	      6.66632926	      0.11634939	      2.11348100	     -9.67756105	     -7.17080925	      7.92678223	     -0.54377150	      3.71102821	      4.25808730	      0.07431764	      7.35741397	     -6.29768974	     -7.17080925	      2.57525073	     -3.88132869	      2.16920954	    -11.09278441	     -8.10387538	     -5.78770057	     29.72211971	     92.90050255	      1.31827068	    -10.38965138	      4.13670217	     22.07166211	     90.65326697
      0.11666670	     -9.40136362	     -0.40112801	      1.45747452	      0.18157794	      1.28243486	     -0.60998615	     13.10840097	     -2.85774039	     -3.98509408	      7.36226218	      0.12849572	      2.33288478	    -10.03030785	     -7.19134025	      8.90769661	     -0.21593751	      3.43303549	      4.41198944	      0.07700374	      7.58937719	     -5.55405499	     -7.19134025	      3.93945415	     -4.07919004	      1.85974981	    -10.83062111	     -7.77025526	     -6.44805208	     28.71689367	     92.78070315	      0.81624278	    -10.33175028	      3.58086081	     21.28386087	     90.40345677
